<svg width="22" height="26" viewBox="0 0 22 26" fill="none" xmlns="http://www.w3.org/2000/svg">
<path fill-rule="evenodd" clip-rule="evenodd" d="M15.2037 0.524477C15.222 0.498514 15.2577 0.492204 15.2837 0.510384L17.0588 1.75335C17.0848 1.77153 17.0911 1.80731 17.0729 1.83327L14.6022 5.36176C15.8034 5.74549 16.6217 6.15941 16.6217 6.15941C16.6217 6.15941 14.6215 9.6 11.2289 9.6C7.8363 9.6 5.42557 6.39331 5.42557 6.39331C5.42557 6.39331 6.28037 5.84779 7.54748 5.37992L4.83747 2.1503C4.81711 2.12602 4.82028 2.08982 4.84455 2.06945L6.50459 0.676499C6.52891 0.656126 6.56509 0.659293 6.58545 0.683573L10.0168 4.77284C10.3106 4.73961 10.6099 4.72103 10.9119 4.72103C11.3461 4.72103 11.7797 4.75404 12.203 4.81004L15.2037 0.524477ZM15.8749 9.76294C16.7803 9.11635 18.1502 7.42872 18.1502 7.42872C18.1502 7.42872 21.6495 10.2017 21.6495 16.0815C21.6495 21.9612 15.5998 25.5 15.5998 25.5C15.5998 25.5 12.7094 22.581 11.9998 18.8807C11.2903 15.1804 13.0494 11.0716 13.0494 11.0716C13.0494 11.0716 14.9696 10.4095 15.8749 9.76294ZM6.12465 9.76294C5.21931 9.11635 3.84937 7.42872 3.84937 7.42872C3.84937 7.42872 0.350098 10.2017 0.350098 16.0815C0.350098 21.9612 6.3998 25.5 6.3998 25.5C6.3998 25.5 9.29023 22.581 9.99981 18.8807C10.7093 15.1804 8.95018 11.0716 8.95018 11.0716C8.95018 11.0716 7.03004 10.4095 6.12465 9.76294Z" fill="#C2CFE0"/>
</svg>
