<svg width="26" height="22" viewBox="0 0 26 22" fill="none" xmlns="http://www.w3.org/2000/svg">
<path fill-rule="evenodd" clip-rule="evenodd" d="M0.502496 11.0152C0.49917 11.0096 0.499168 11.0025 0.502491 10.9968L6.78883 0.256298C6.7921 0.250727 6.79811 0.247299 6.80455 0.247299H19.2644C19.2709 0.247299 19.2769 0.250756 19.2802 0.256376L25.4975 10.9969C25.5008 11.0025 25.5008 11.0095 25.4975 11.0151L19.2802 21.7436C19.2769 21.7492 19.2709 21.7527 19.2644 21.7527H6.80455C6.79811 21.7527 6.7921 21.7493 6.78883 21.7437L0.502496 11.0152ZM18.7919 11C18.7919 14.1977 16.1996 16.7899 13.002 16.7899C9.80431 16.7899 7.21207 14.1977 7.21207 11C7.21207 7.80229 9.80431 5.2101 13.002 5.2101C16.1996 5.2101 18.7919 7.80229 18.7919 11Z" fill="#C2CFE0"/>
</svg>
