<svg width="94" height="145" viewBox="0 0 94 145" fill="none" xmlns="http://www.w3.org/2000/svg">
<path fill-rule="evenodd" clip-rule="evenodd" d="M93.7115 97.8605C93.7115 123.562 72.798 144.397 46.9998 144.397C21.2016 144.397 0.288086 123.562 0.288086 97.8605C0.288086 72.8642 44.473 4.21355 46.8963 0.46727C46.9517 0.381841 47.0482 0.381841 47.1033 0.467271C49.5265 4.21355 93.7115 72.8642 93.7115 97.8605ZM39.2131 129.478C15.5093 124.291 19.5655 98.0335 19.5655 98.0335C19.5655 98.0335 26.0382 113.884 41.7457 119.019C57.453 124.153 76.4351 116.623 76.4351 116.623C76.4351 116.623 62.9168 134.664 39.2131 129.478Z" fill="#C2CFE0"/>
</svg>
