<svg width="126" height="145" viewBox="0 0 126 145" fill="none" xmlns="http://www.w3.org/2000/svg">
<path fill-rule="evenodd" clip-rule="evenodd" d="M69.9855 72.0852C70.9615 71.4901 71.7895 70.243 72.4571 68.857C81.2448 72.4486 87.4202 80.9356 87.4202 90.833C87.4202 103.981 76.5218 114.641 63.078 114.641C57.5593 114.641 52.4696 112.844 48.3867 109.817C47.0473 109.183 45.9454 108.574 45.0437 108.075C43.6451 107.302 42.7279 106.795 42.1536 106.874C40.4748 107.106 40.9622 108.65 41.4052 110.053C41.7058 111.007 41.9862 111.894 41.5523 112.261C41.0983 112.644 39.628 111.242 37.9098 109.604C35.5709 107.374 32.7731 104.707 31.4537 105.508C30.4106 106.141 31.4233 107.86 32.6631 109.964L32.7551 110.12C33.2787 111.009 33.8857 111.915 34.4395 112.741C35.5653 114.421 36.4721 115.774 36.0184 116.003C35.47 116.28 31.6489 113.701 28.4289 110.12C27.186 108.738 25.9823 107.24 24.8635 105.848V105.848C22.4146 102.801 20.3744 100.263 19.2292 100.563C17.8515 100.925 18.8937 103.767 20.4251 106.501C21.1411 107.78 21.9835 109.082 22.7127 110.21V110.21C23.847 111.964 24.7079 113.294 24.3957 113.458C23.9744 113.678 20.2673 110.063 17.7494 105.508C16.2538 102.802 14.998 99.8117 13.9814 97.3909C12.8788 94.7655 12.0576 92.8099 11.5168 92.6131C9.63785 91.9293 9.63785 95.7602 10.3914 101.289C10.4897 102.011 10.6361 102.767 10.8164 103.538C18.1244 127.183 40.5741 144.4 67.1351 144.4C99.6242 144.4 125.962 118.641 125.962 86.8652C125.962 56.6218 102.103 31.8287 71.7906 29.5076C71.8288 28.0829 72.5725 25.2576 72.5725 25.2576C72.5725 25.2576 77.9238 12.3101 78.2067 9.54331C78.2253 9.35968 78.2475 9.16014 78.2714 8.94762C78.6047 5.95822 79.2249 0.399902 74.4431 0.399902C71.8893 0.399902 70.7019 2.29965 69.3437 4.47237V4.4724C68.8223 5.30651 68.2755 6.18086 67.6168 7.00337C62.8727 12.9278 54.8953 20.3261 50.372 24.2676C40.8112 32.5985 31.4309 39.4453 25.9601 43.4385L25.9598 43.4387C23.4716 45.2548 21.7922 46.4807 21.2725 46.9873C17.3558 50.8055 3.31234 76.1366 3.31234 76.1366C3.31234 76.1366 -1.22914 84.2636 0.385095 85.912C1.99933 87.5601 5.89205 87.1824 5.89205 87.1824C5.89205 87.1824 58.1879 75.1851 62.8699 74.239C64.1305 73.9842 65.0203 73.8371 65.7035 73.7243C67.5583 73.418 67.8913 73.3629 69.9855 72.0852ZM33.0104 56.6679C30.2033 59.3361 25.5477 65.705 25.5477 65.705C25.5477 65.705 34.2001 66.238 38.9653 61.7085C43.7308 57.1786 42.639 49.4592 42.639 49.4592C42.639 49.4592 35.8173 53.9997 33.0104 56.6679Z" fill="white"/>
</svg>
