<svg xmlns="http://www.w3.org/2000/svg" xmlns:xlink="http://www.w3.org/1999/xlink" width="500" zoomAndPan="magnify" viewBox="0 0 375 374.999991" height="500" preserveAspectRatio="xMidYMid meet" version="1.0"><defs><g/><clipPath id="157ac7b36f"><path d="M 17.457031 82.085938 L 202.882812 82.085938 L 202.882812 310.023438 L 17.457031 310.023438 Z M 17.457031 82.085938 " clip-rule="nonzero"/></clipPath><clipPath id="ac70bc39b3"><path d="M 38.71875 248.148438 L 81.71875 248.148438 L 81.71875 316.308594 L 38.71875 316.308594 Z M 38.71875 248.148438 " clip-rule="nonzero"/></clipPath></defs><g clip-path="url(#157ac7b36f)"><path fill="#2d2e32" d="M 17.449219 225.351562 L 75.910156 225.351562 L 75.910156 140.597656 L 127.257812 140.597656 C 131.941406 140.597656 136.347656 142.421875 139.660156 145.738281 C 142.96875 149.054688 144.789062 153.464844 144.78125 158.148438 L 144.664062 234.707031 C 144.652344 244.023438 137.058594 251.605469 127.742188 251.605469 L 77.722656 251.605469 L 38.742188 310.019531 L 127.742188 310.019531 C 169.222656 310.019531 203.019531 276.273438 203.078125 234.792969 L 203.195312 158.234375 C 203.226562 137.929688 195.34375 118.835938 180.996094 104.464844 C 166.644531 90.09375 147.5625 82.183594 127.257812 82.183594 L 17.449219 82.101562 Z M 17.449219 225.351562 " fill-opacity="1" fill-rule="nonzero"/></g><g clip-path="url(#ac70bc39b3)"><path fill="#ffffff" d="M 38.71875 248.148438 L 81.71875 248.148438 L 81.71875 316.347656 L 38.71875 316.347656 Z M 38.71875 248.148438 " fill-opacity="1" fill-rule="nonzero"/></g><g fill="#cd3131" fill-opacity="1"><g transform="translate(-55.450989, 300.079475)"><g><path d="M 65.515625 -24.1875 C 65.515625 -32.144531 67.910156 -38.519531 72.703125 -43.3125 C 77.503906 -48.113281 83.882812 -50.515625 91.84375 -50.515625 C 99.800781 -50.515625 106.175781 -48.113281 110.96875 -43.3125 C 115.769531 -38.519531 118.171875 -32.144531 118.171875 -24.1875 C 118.171875 -16.019531 115.769531 -9.4375 110.96875 -4.4375 C 106.175781 0.5625 99.800781 3.0625 91.84375 3.0625 C 83.882812 3.0625 77.503906 0.5625 72.703125 -4.4375 C 67.910156 -9.4375 65.515625 -16.019531 65.515625 -24.1875 Z M 65.515625 -24.1875 "/></g></g></g><path fill="#ffffff" d="M 153 195.847656 C 153 209.074219 155.605469 222.167969 160.667969 234.386719 C 165.730469 246.605469 173.148438 257.710938 182.5 267.0625 C 191.851562 276.414062 202.953125 283.832031 215.171875 288.894531 C 227.390625 293.957031 240.488281 296.5625 253.714844 296.5625 C 266.941406 296.5625 280.039062 293.957031 292.257812 288.894531 C 304.476562 283.832031 315.578125 276.414062 324.929688 267.0625 C 334.285156 257.710938 341.703125 246.605469 346.761719 234.386719 C 351.824219 222.167969 354.429688 209.074219 354.429688 195.847656 Z M 153 195.847656 " fill-opacity="1" fill-rule="nonzero"/><path fill="#cd3131" d="M 354.429688 195.84375 C 354.429688 182.621094 351.824219 169.523438 346.761719 157.304688 C 341.699219 145.085938 334.28125 133.980469 324.929688 124.628906 C 315.578125 115.277344 304.476562 107.859375 292.253906 102.796875 C 280.035156 97.734375 266.941406 95.132812 253.714844 95.132812 C 240.488281 95.132812 227.390625 97.734375 215.171875 102.796875 C 202.953125 107.859375 191.851562 115.277344 182.5 124.628906 C 173.144531 133.980469 165.726562 145.085938 160.664062 157.304688 C 155.605469 169.523438 153 182.621094 153 195.84375 Z M 354.429688 195.84375 " fill-opacity="1" fill-rule="nonzero"/><path fill="#ffffff" d="M 283.929688 195.835938 C 283.929688 196.828125 283.878906 197.8125 283.78125 198.800781 C 283.6875 199.785156 283.539062 200.761719 283.347656 201.730469 C 283.15625 202.703125 282.914062 203.660156 282.628906 204.609375 C 282.339844 205.554688 282.007812 206.484375 281.628906 207.398438 C 281.25 208.3125 280.828125 209.207031 280.359375 210.082031 C 279.894531 210.953125 279.386719 211.800781 278.835938 212.625 C 278.285156 213.445312 277.699219 214.242188 277.070312 215.003906 C 276.441406 215.769531 275.777344 216.503906 275.078125 217.203125 C 274.378906 217.902344 273.648438 218.566406 272.882812 219.195312 C 272.117188 219.820312 271.324219 220.410156 270.5 220.960938 C 269.675781 221.507812 268.828125 222.019531 267.957031 222.484375 C 267.085938 222.949219 266.191406 223.375 265.277344 223.753906 C 264.363281 224.128906 263.433594 224.464844 262.484375 224.75 C 261.539062 225.039062 260.578125 225.277344 259.609375 225.472656 C 258.636719 225.664062 257.660156 225.808594 256.675781 225.90625 C 255.691406 226.003906 254.703125 226.050781 253.714844 226.050781 C 252.722656 226.050781 251.738281 226.003906 250.753906 225.90625 C 249.769531 225.808594 248.789062 225.664062 247.820312 225.472656 C 246.847656 225.277344 245.890625 225.039062 244.941406 224.75 C 243.996094 224.464844 243.066406 224.128906 242.152344 223.753906 C 241.238281 223.375 240.34375 222.949219 239.472656 222.484375 C 238.597656 222.019531 237.75 221.507812 236.929688 220.960938 C 236.105469 220.410156 235.3125 219.820312 234.546875 219.195312 C 233.78125 218.566406 233.050781 217.902344 232.347656 217.203125 C 231.648438 216.503906 230.984375 215.769531 230.359375 215.003906 C 229.730469 214.242188 229.140625 213.445312 228.589844 212.625 C 228.042969 211.800781 227.535156 210.953125 227.066406 210.082031 C 226.601562 209.207031 226.179688 208.3125 225.800781 207.398438 C 225.421875 206.484375 225.089844 205.554688 224.800781 204.609375 C 224.511719 203.660156 224.273438 202.703125 224.082031 201.730469 C 223.886719 200.761719 223.742188 199.785156 223.644531 198.800781 C 223.546875 197.8125 223.5 196.828125 223.5 195.835938 C 223.5 194.847656 223.546875 193.859375 223.644531 192.875 C 223.742188 191.890625 223.886719 190.914062 224.082031 189.941406 C 224.273438 188.972656 224.511719 188.015625 224.800781 187.066406 C 225.089844 186.121094 225.421875 185.1875 225.800781 184.273438 C 226.179688 183.359375 226.601562 182.46875 227.066406 181.59375 C 227.535156 180.722656 228.042969 179.875 228.589844 179.050781 C 229.140625 178.230469 229.730469 177.433594 230.359375 176.667969 C 230.984375 175.90625 231.648438 175.171875 232.347656 174.472656 C 233.050781 173.773438 233.78125 173.109375 234.546875 172.480469 C 235.3125 171.855469 236.105469 171.265625 236.929688 170.714844 C 237.75 170.164062 238.597656 169.65625 239.472656 169.191406 C 240.34375 168.722656 241.238281 168.300781 242.152344 167.921875 C 243.066406 167.542969 243.996094 167.210938 244.941406 166.925781 C 245.890625 166.636719 246.847656 166.398438 247.820312 166.203125 C 248.789062 166.011719 249.769531 165.867188 250.753906 165.769531 C 251.738281 165.671875 252.722656 165.625 253.714844 165.625 C 254.703125 165.625 255.691406 165.671875 256.675781 165.769531 C 257.660156 165.867188 258.636719 166.011719 259.609375 166.203125 C 260.578125 166.398438 261.539062 166.636719 262.484375 166.925781 C 263.433594 167.210938 264.363281 167.542969 265.277344 167.921875 C 266.191406 168.300781 267.085938 168.722656 267.957031 169.191406 C 268.828125 169.65625 269.675781 170.164062 270.5 170.714844 C 271.324219 171.265625 272.117188 171.855469 272.882812 172.480469 C 273.648438 173.109375 274.378906 173.773438 275.078125 174.472656 C 275.777344 175.171875 276.441406 175.90625 277.070312 176.667969 C 277.699219 177.433594 278.285156 178.230469 278.835938 179.050781 C 279.386719 179.875 279.894531 180.722656 280.359375 181.59375 C 280.828125 182.46875 281.25 183.359375 281.628906 184.273438 C 282.007812 185.1875 282.339844 186.121094 282.628906 187.066406 C 282.914062 188.015625 283.15625 188.972656 283.347656 189.941406 C 283.539062 190.914062 283.6875 191.890625 283.78125 192.875 C 283.878906 193.859375 283.929688 194.847656 283.929688 195.835938 Z M 283.929688 195.835938 " fill-opacity="1" fill-rule="nonzero"/><path stroke-linecap="round" transform="matrix(9.296722, 0, 0, 9.296722, 132.856724, 74.989572)" fill="none" stroke-linejoin="round" d="M 13.000079 23.833027 C 18.983371 23.833027 23.833451 18.982947 23.833451 12.999655 C 23.833451 7.016784 18.983371 2.166704 13.000079 2.166704 C 7.016787 2.166704 2.166707 7.016784 2.166707 12.999655 C 2.166707 18.982947 7.016787 23.833027 13.000079 23.833027 Z M 13.000079 23.833027 " stroke="#2d2e32" stroke-width="1.5" stroke-opacity="1" stroke-miterlimit="4"/><path stroke-linecap="round" transform="matrix(9.296722, 0, 0, 9.296722, 132.856724, 74.989572)" fill="none" stroke-linejoin="round" d="M 13.000079 16.250129 C 13.861858 16.250129 14.688342 15.907686 15.298016 15.298013 C 15.90769 14.688759 16.249713 13.861854 16.249713 13.000076 C 16.249713 12.137876 15.90769 11.311392 15.298016 10.701718 C 14.688342 10.092465 13.861858 9.750022 13.000079 9.750022 C 12.13788 9.750022 11.311396 10.092465 10.701722 10.701718 C 10.092468 11.311392 9.750026 12.137876 9.750026 13.000076 C 9.750026 13.861854 10.092468 14.688759 10.701722 15.298013 C 11.311396 15.907686 12.13788 16.250129 13.000079 16.250129 Z M 13.000079 16.250129 " stroke="#2d2e32" stroke-width="1.5" stroke-opacity="1" stroke-miterlimit="4"/><path stroke-linecap="butt" transform="matrix(9.296722, 0, 0, 9.296722, 132.856724, 74.989572)" fill="none" stroke-linejoin="miter" d="M 2.166707 12.999655 L 9.750026 12.999655 M 16.250133 12.999655 L 23.833451 12.999655 " stroke="#2d2e32" stroke-width="1.5" stroke-opacity="1" stroke-miterlimit="4"/></svg>