<svg width="18" height="18" viewBox="0 0 18 18" fill="none" xmlns="http://www.w3.org/2000/svg">
<path d="M9 0C13.6315 0 17.452 3.44664 18 7.89677H13.6074C13.1072 5.83152 11.2342 4.29677 9 4.29677C6.76581 4.29677 4.89277 5.83152 4.39261 7.89677H0C0.547998 3.44664 4.36848 0 9 0Z" fill="#C2CFE0" fill-opacity="0.5"/>
<path d="M13.6074 10.1032H18C17.452 14.5534 13.6315 18 9 18C4.36848 18 0.547998 14.5534 0 10.1032H4.39261C4.89277 12.1685 6.76581 13.7032 9 13.7032C11.2342 13.7032 13.1072 12.1685 13.6074 10.1032Z" fill="#C2CFE0" fill-opacity="0.5"/>
<path d="M9 11.9613C10.6477 11.9613 11.9835 10.6355 11.9835 9C11.9835 7.36452 10.6477 6.03871 9 6.03871C7.35227 6.03871 6.01652 7.36452 6.01652 9C6.01652 10.6355 7.35227 11.9613 9 11.9613Z" fill="#C2CFE0" fill-opacity="0.5"/>
</svg>
