<svg width="18" height="17" viewBox="0 0 18 17" fill="none" xmlns="http://www.w3.org/2000/svg">
<path d="M9 0C13.6315 0 17.452 3.25516 18 7.45806H13.6074C13.1072 5.50754 11.2342 4.05806 9 4.05806C6.76581 4.05806 4.89277 5.50754 4.39261 7.45806H0C0.547998 3.25516 4.36848 0 9 0Z" fill="#C2CFE0" fill-opacity="0.5"/>
<path d="M13.6074 9.54193H18C17.452 13.7448 13.6315 17 9 17C4.36848 17 0.547998 13.7448 0 9.54193H4.39261C4.89277 11.4925 6.76581 12.9419 9 12.9419C11.2342 12.9419 13.1072 11.4925 13.6074 9.54193Z" fill="#C2CFE0" fill-opacity="0.5"/>
<path d="M9 11.2968C10.6477 11.2968 11.9835 10.0446 11.9835 8.5C11.9835 6.95538 10.6477 5.70323 9 5.70323C7.35227 5.70323 6.01652 6.95538 6.01652 8.5C6.01652 10.0446 7.35227 11.2968 9 11.2968Z" fill="#C2CFE0" fill-opacity="0.5"/>
</svg>
